<?xml version="1.0" encoding="UTF-8" standalone="no"?>
<!-- Created with Inkscape (http://www.inkscape.org/) -->

<svg
   width="210mm"
   height="297mm"
   viewBox="0 0 210 297"
   version="1.1"
   id="svg1"
   inkscape:version="1.4 (86a8ad7, 2024-10-11)"
   sodipodi:docname="BrokenHealth.svg"
   xmlns:inkscape="http://www.inkscape.org/namespaces/inkscape"
   xmlns:sodipodi="http://sodipodi.sourceforge.net/DTD/sodipodi-0.dtd"
   xmlns="http://www.w3.org/2000/svg"
   xmlns:svg="http://www.w3.org/2000/svg">
  <sodipodi:namedview
     id="namedview1"
     pagecolor="#ffffff"
     bordercolor="#000000"
     borderopacity="0.25"
     inkscape:showpageshadow="2"
     inkscape:pageopacity="0.0"
     inkscape:pagecheckerboard="0"
     inkscape:deskcolor="#d1d1d1"
     inkscape:document-units="mm"
     inkscape:zoom="0.65477694"
     inkscape:cx="397.08179"
     inkscape:cy="667.40286"
     inkscape:window-width="1920"
     inkscape:window-height="974"
     inkscape:window-x="-11"
     inkscape:window-y="-11"
     inkscape:window-maximized="1"
     inkscape:current-layer="layer1" />
  <defs
     id="defs1" />
  <g
     inkscape:label="Layer 1"
     inkscape:groupmode="layer"
     id="layer1">
    <circle
       style="fill:#ff0000;stroke:#ff0000;stroke-width:0.264583;stroke-opacity:1"
       id="path7"
       cx="129.29787"
       cy="127.34798"
       r="32.326534" />
    <circle
       style="fill:#ff0000;stroke:#ff0000;stroke-width:0.264583;stroke-opacity:1"
       id="path7-5"
       cx="81.461281"
       cy="126.39569"
       r="32.326534" />
    <path
       style="fill:#ff0000;stroke:#ff0000;stroke-width:0.264583;stroke-opacity:1"
       d="m 50.956693,137.91182 c 40.00204,79.71835 29.7158,80.00408 29.7158,80.00408 0,0 93.719057,-70.57503 78.861157,-92.29043 -14.8579,-21.71539 -108.576957,12.28635 -108.576957,12.28635 z"
       id="path8" />
    <path
       style="fill:#ffffff;stroke:#ffffff;stroke-width:0.264583;fill-opacity:1;stroke-opacity:1"
       d="m 102.23265,101.82857 c -11.314282,22.62857 -11.314282,22.62857 -11.314282,22.62857 l 8.889793,21.82041 -13.334693,29.09388 6.061226,20.20408 -10.102043,18.18367 c 0,0 -30.710203,19.39592 -8.081632,8.8898 22.628572,-10.50612 16.971428,-14.14286 16.971428,-14.14286 l 12.122453,-13.33469 -8.8898,-16.56735 16.16327,-31.51837 -13.334697,-20.60816 9.697957,-23.43673 z"
       id="path1" />
    <path
       style="fill:#ff0000;fill-opacity:1;stroke:#ff0000;stroke-width:0.264583;stroke-opacity:1"
       d="m 93.342856,212.54694 c -0.404083,14.14285 -0.404083,14.14285 -0.404083,14.14285 l 9.697957,-6.4653 z"
       id="path2" />
    <path
       style="fill:#ff0000;fill-opacity:1;stroke:#ff0000;stroke-width:0.264583;stroke-opacity:1"
       d="M 153.9551,212.14286 Z"
       id="path3" />
    <path
       style="fill:#ff0000;fill-opacity:1;stroke:#ff0000;stroke-width:0.264583;stroke-opacity:1"
       d="m 107.08163,97.383673 c 7.67755,-13.738775 7.67755,-13.738775 7.67755,-13.738775 l -8.88979,-0.808165 z"
       id="path4" />
    <path
       style="fill:#ff0000;fill-opacity:1;stroke:#ff0000;stroke-width:0.264583;stroke-opacity:1"
       d="m 100.61633,95.767347 c 0,-9.697961 0,-9.697961 0,-9.697961 l -4.444904,1.212247 z"
       id="path5" />
    <path
       style="fill:#ff0000;fill-opacity:1;stroke:#ff0000;stroke-width:0.264583;stroke-opacity:1"
       d="M 192.34285,224.2653 Z"
       id="path6" />
  </g>
</svg>
