<?xml version="1.0" encoding="UTF-8" standalone="no"?>
<!-- Created with Inkscape (http://www.inkscape.org/) -->

<svg
   width="210mm"
   height="297mm"
   viewBox="0 0 210 297"
   version="1.1"
   id="svg1"
   inkscape:version="1.4 (86a8ad7, 2024-10-11)"
   sodipodi:docname="N.svg"
   xmlns:inkscape="http://www.inkscape.org/namespaces/inkscape"
   xmlns:sodipodi="http://sodipodi.sourceforge.net/DTD/sodipodi-0.dtd"
   xmlns="http://www.w3.org/2000/svg"
   xmlns:svg="http://www.w3.org/2000/svg">
  <sodipodi:namedview
     id="namedview1"
     pagecolor="#ffffff"
     bordercolor="#000000"
     borderopacity="0.25"
     inkscape:showpageshadow="2"
     inkscape:pageopacity="0.0"
     inkscape:pagecheckerboard="0"
     inkscape:deskcolor="#d1d1d1"
     inkscape:document-units="mm"
     inkscape:zoom="0.65477694"
     inkscape:cx="397.08179"
     inkscape:cy="560.49622"
     inkscape:window-width="1920"
     inkscape:window-height="974"
     inkscape:window-x="-11"
     inkscape:window-y="-11"
     inkscape:window-maximized="1"
     inkscape:current-layer="layer1" />
  <defs
     id="defs1" />
  <g
     inkscape:label="Layer 1"
     inkscape:groupmode="layer"
     id="layer1">
    <path
       style="fill:#1a1a1a;stroke:#1a1a1a;stroke-width:0.264583"
       d="m 33.461255,203.25306 c 0,-148.297959 0.404083,-148.297959 0.404083,-148.297959 0,0 10.10204,-23.436734 25.053059,-0.40408 14.951019,23.032651 56.571433,113.546939 56.571433,113.546939 0,0 25.45714,29.49796 27.07347,10.9102 1.61632,-18.58775 -2.02041,-132.538773 -2.02041,-132.538773 0,0 15.75918,-28.285714 29.90204,-1.616327 14.14286,26.669389 1.61633,160.82449 1.61633,160.82449 0,0 -23.84082,26.2653 -43.64082,12.52653 -19.8,-13.73878 -78.795921,-134.155103 -78.795921,-134.155103 0,0 33.942858,118.395923 5.657143,128.093883 -28.285713,9.69795 -21.820407,-8.8898 -21.820407,-8.8898 z"
       id="path1" />
  </g>
</svg>
