<?xml version="1.0" encoding="UTF-8" standalone="no"?>
<!-- Created with Inkscape (http://www.inkscape.org/) -->

<svg
   width="210mm"
   height="297mm"
   viewBox="0 0 210 297"
   version="1.1"
   id="svg1"
   inkscape:version="1.4 (86a8ad7, 2024-10-11)"
   sodipodi:docname="QuestionMark.svg"
   xmlns:inkscape="http://www.inkscape.org/namespaces/inkscape"
   xmlns:sodipodi="http://sodipodi.sourceforge.net/DTD/sodipodi-0.dtd"
   xmlns="http://www.w3.org/2000/svg"
   xmlns:svg="http://www.w3.org/2000/svg">
  <sodipodi:namedview
     id="namedview1"
     pagecolor="#ffffff"
     bordercolor="#000000"
     borderopacity="0.25"
     inkscape:showpageshadow="2"
     inkscape:pageopacity="0.0"
     inkscape:pagecheckerboard="0"
     inkscape:deskcolor="#d1d1d1"
     inkscape:document-units="mm"
     inkscape:zoom="0.65477694"
     inkscape:cx="397.08179"
     inkscape:cy="560.49622"
     inkscape:window-width="1920"
     inkscape:window-height="974"
     inkscape:window-x="-11"
     inkscape:window-y="-11"
     inkscape:window-maximized="1"
     inkscape:current-layer="layer1" />
  <defs
     id="defs1" />
  <g
     inkscape:label="Layer 1"
     inkscape:groupmode="layer"
     id="layer1">
    <path
       style="fill:#ff0000;stroke:#1a1a1a;stroke-width:0.264583;fill-opacity:1"
       d="m 28.285715,95.767347 c 2.82857,-76.371429 68.693876,-76.775511 68.693876,-76.775511 0,0 63.844899,-5.657142 63.844899,75.967346 0,81.624488 -55.76327,74.755098 -55.76327,74.755098 l 5.65715,62.22857 c 0,0 -21.820411,12.52654 -36.367351,-0.40408 -14.546939,-12.93061 -2.020408,-94.15102 -2.020408,-94.15102 0,0 10.506122,-15.75918 35.155099,-6.06122 24.64898,9.69796 23.03266,-40.004083 23.03266,-40.004083 0,0 0.40408,-44.448978 -33.538779,-36.771426 C 63.036735,62.22857 60.612244,97.787755 60.612244,97.787755 Z"
       id="path1" />
    <ellipse
       style="fill:#ff0000;fill-opacity:1;stroke:#1a1a1a;stroke-width:0.264583"
       id="path2"
       cx="92.534691"
       cy="268.91629"
       rx="20.608164"
       ry="17.17347" />
  </g>
</svg>
