<?xml version="1.0" encoding="UTF-8" standalone="no"?>
<!-- Created with Inkscape (http://www.inkscape.org/) -->

<svg
   width="210mm"
   height="297mm"
   viewBox="0 0 210 297"
   version="1.1"
   id="svg1"
   inkscape:version="1.4 (86a8ad7, 2024-10-11)"
   sodipodi:docname="Y.svg"
   xmlns:inkscape="http://www.inkscape.org/namespaces/inkscape"
   xmlns:sodipodi="http://sodipodi.sourceforge.net/DTD/sodipodi-0.dtd"
   xmlns="http://www.w3.org/2000/svg"
   xmlns:svg="http://www.w3.org/2000/svg">
  <sodipodi:namedview
     id="namedview1"
     pagecolor="#ffffff"
     bordercolor="#000000"
     borderopacity="0.25"
     inkscape:showpageshadow="2"
     inkscape:pageopacity="0.0"
     inkscape:pagecheckerboard="0"
     inkscape:deskcolor="#d1d1d1"
     inkscape:document-units="mm"
     inkscape:zoom="0.65477694"
     inkscape:cx="397.08179"
     inkscape:cy="560.49622"
     inkscape:window-width="1920"
     inkscape:window-height="974"
     inkscape:window-x="-11"
     inkscape:window-y="-11"
     inkscape:window-maximized="1"
     inkscape:current-layer="layer1" />
  <defs
     id="defs1" />
  <g
     inkscape:label="Layer 1"
     inkscape:groupmode="layer"
     id="layer1">
    <path
       style="fill:#1a1a1a;stroke:#1a1a1a;stroke-width:0.264583"
       d="m 34.75102,56.975509 c 0.808162,117.183671 17.37551,122.436731 17.37551,122.436731 0,0 21.012245,17.77959 42.02449,4.84898 21.01225,-12.93061 -7.677552,96.17142 -7.677552,96.17142 0,0 11.718367,18.18367 37.983672,7.67757 26.26531,-10.50613 37.57959,-232.751027 37.57959,-232.751027 0,0 6.86939,-25.457142 -15.3551,-14.951019 C 124.45714,50.914286 118.8,112.33469 118.8,112.33469 c 0,0 10.10204,67.88572 -27.881632,48.89388 C 52.934692,142.23673 67.481632,48.893878 67.481632,48.893878 c 0,0 -0.404083,-23.840817 -16.971428,-17.375511 C 33.942856,37.983673 34.75102,56.975509 34.75102,56.975509 Z"
       id="path1" />
  </g>
</svg>
